<svg width="293" height="48" viewBox="0 0 293 48" fill="none" xmlns="http://www.w3.org/2000/svg">
<path d="M8.52015 19.44C9.28815 19.504 10.0722 19.712 10.8722 20.064C11.5761 20.384 12.3362 20.864 13.1522 21.504C13.9682 22.144 14.7761 23.024 15.5761 24.144C16.3121 25.232 17.0161 26.272 17.6881 27.264C18.3601 28.256 19.0082 29.256 19.6322 30.264C20.2562 31.272 20.8801 32.304 21.5042 33.36C22.1281 34.416 22.7602 35.552 23.4002 36.768C24.2322 38.304 25.3282 39.424 26.6882 40.128C28.0482 40.832 29.6722 41.2 31.5602 41.232C32.7122 41.232 33.8562 41.136 34.9922 40.944C36.1282 40.752 37.2162 40.464 38.2562 40.08C39.2962 39.696 40.2642 39.232 41.1602 38.688C42.0562 38.144 42.8242 37.52 43.4642 36.816C45.1602 34.96 46.0002 33.304 45.9842 31.848C45.9682 30.392 45.1122 29.296 43.4162 28.56C42.6482 28.208 41.8562 27.928 41.0402 27.72C40.2242 27.512 39.4802 27.344 38.8082 27.216C38.0082 27.088 37.2402 26.992 36.5042 26.928C36.0562 27.472 35.4802 27.92 34.7762 28.272C34.1682 28.592 33.4082 28.84 32.4962 29.016C31.5842 29.192 30.4722 29.168 29.1602 28.944C28.1042 28.784 27.1682 28.488 26.3522 28.056C25.5362 27.624 24.7682 27.088 24.0482 26.448C23.3282 25.808 22.6241 25.072 21.9361 24.24C21.2481 23.408 20.5202 22.512 19.7522 21.552C19.2402 20.944 18.6482 20.168 17.9762 19.224C17.3041 18.28 16.6161 17.288 15.9121 16.248C15.2081 15.208 14.5042 14.16 13.8001 13.104C13.0961 12.048 12.4722 11.088 11.9282 10.224C11.3521 9.328 10.8162 8.6 10.3202 8.04C9.82415 7.48 9.36015 7.048 8.92815 6.744C8.49615 6.44 8.08015 6.24 7.68015 6.144C7.28015 6.048 6.88815 6 6.50415 6C6.24815 6 5.87215 6.24 5.37615 6.72C4.88015 7.2 4.39215 7.832 3.91215 8.616C3.43215 9.4 3.00015 10.288 2.61615 11.28C2.23215 12.272 2.04015 13.28 2.04015 14.304C2.04015 15.168 2.10415 15.88 2.23215 16.44C2.36015 17 2.51215 17.504 2.68815 17.952C2.86415 18.4 3.03215 18.832 3.19215 19.248C3.35215 19.664 3.46415 20.16 3.52815 20.736C3.56015 21.152 3.61615 21.912 3.69615 23.016C3.77615 24.12 3.86415 25.392 3.96015 26.832C4.05615 28.272 4.16015 29.792 4.27215 31.392C4.38415 32.992 4.48015 34.488 4.56015 35.88C4.64015 37.272 4.71215 38.472 4.77615 39.48C4.84015 40.488 4.87215 41.104 4.87215 41.328H6.74415L6.79215 26.928C6.79215 25.84 6.77615 24.832 6.74415 23.904C6.71215 22.976 6.73615 22.184 6.81615 21.528C6.89615 20.872 7.06415 20.36 7.32015 19.992C7.57615 19.624 7.97615 19.44 8.52015 19.44Z" fill="#FF1B6D"/>
<path d="M69.2386 39.3977C67.8466 39.3883 66.4877 39.1468 65.1619 38.6733C63.8362 38.1903 62.643 37.4091 61.5824 36.3295C60.5218 35.2405 59.679 33.7964 59.054 31.9972C58.429 30.1884 58.1212 27.9489 58.1307 25.2784C58.1307 22.7879 58.3958 20.5672 58.9261 18.6165C59.4564 16.6657 60.2188 15.018 61.2131 13.6733C62.2074 12.3191 63.4053 11.2869 64.8068 10.5767C66.2178 9.86648 67.7945 9.51136 69.5369 9.51136C71.3646 9.51136 72.9839 9.87121 74.3949 10.5909C75.8153 11.3106 76.9612 12.2955 77.8324 13.5455C78.7036 14.786 79.2434 16.1875 79.4517 17.75H74.267C74.0019 16.6326 73.4574 15.7424 72.6335 15.0795C71.8191 14.4072 70.7869 14.071 69.5369 14.071C67.5199 14.071 65.9669 14.947 64.8778 16.6989C63.7983 18.4508 63.2538 20.8561 63.2443 23.9148H63.4432C63.9072 23.0814 64.5085 22.3665 65.2472 21.7699C65.9858 21.1733 66.8191 20.714 67.7472 20.392C68.6847 20.0606 69.6742 19.8949 70.7159 19.8949C72.4205 19.8949 73.9498 20.3021 75.304 21.1165C76.6676 21.9309 77.7472 23.053 78.5426 24.483C79.3381 25.9034 79.7311 27.5322 79.7216 29.3693C79.7311 31.2822 79.2955 33.0009 78.4148 34.5256C77.5341 36.0407 76.3078 37.2339 74.7358 38.1051C73.1638 38.9763 71.3314 39.4072 69.2386 39.3977ZM69.2102 35.1364C70.2424 35.1364 71.1657 34.8854 71.9801 34.3835C72.7945 33.8816 73.4384 33.2045 73.9119 32.3523C74.3854 31.5 74.6174 30.5436 74.608 29.483C74.6174 28.4413 74.3902 27.4991 73.9261 26.6562C73.4716 25.8134 72.8419 25.1458 72.0369 24.6534C71.232 24.161 70.3134 23.9148 69.2812 23.9148C68.5142 23.9148 67.7992 24.0616 67.1364 24.3551C66.4735 24.6487 65.8958 25.0559 65.4034 25.5767C64.911 26.0881 64.5227 26.6847 64.2386 27.3665C63.964 28.0388 63.822 28.7585 63.8125 29.5256C63.822 30.5388 64.0587 31.4716 64.5227 32.3239C64.9867 33.1761 65.6259 33.858 66.4403 34.3693C67.2547 34.8807 68.178 35.1364 69.2102 35.1364ZM84.8068 39V9.90909H103.443V14.3267H90.0767V22.2244H102.165V26.642H90.0767V39H84.8068Z" fill="#FF1B6D"/>
<path d="M121.923 29.8239V17.1818H127.065V39H122.08V35.1222H121.852C121.36 36.3437 120.55 37.3428 119.423 38.1193C118.306 38.8958 116.928 39.2841 115.29 39.2841C113.86 39.2841 112.596 38.9669 111.497 38.3324C110.408 37.6884 109.556 36.7557 108.94 35.5341C108.325 34.303 108.017 32.8163 108.017 31.0739V17.1818H113.159V30.2784C113.159 31.661 113.538 32.7595 114.295 33.5739C115.053 34.3883 116.047 34.7955 117.278 34.7955C118.036 34.7955 118.77 34.6108 119.48 34.2415C120.19 33.8722 120.773 33.3229 121.227 32.5938C121.691 31.8551 121.923 30.9318 121.923 29.8239ZM136.558 17.1818L140.961 25.2358L145.435 17.1818H150.876L144.299 28.0909L150.989 39H145.577L140.961 31.1449L136.387 39H130.933L137.58 28.0909L131.103 17.1818H136.558ZM159.058 17.1818L163.461 25.2358L167.935 17.1818H173.376L166.799 28.0909L173.489 39H168.077L163.461 31.1449L158.887 39H153.433L160.08 28.0909L153.603 17.1818H159.058ZM181.558 17.1818L185.961 25.2358L190.435 17.1818H195.876L189.299 28.0909L195.989 39H190.577L185.961 31.1449L181.387 39H175.933L182.58 28.0909L176.103 17.1818H181.558ZM203.021 39.3125C202.159 39.3125 201.42 39.0095 200.805 38.4034C200.189 37.7973 199.886 37.0587 199.896 36.1875C199.886 35.3352 200.189 34.6061 200.805 34C201.42 33.3939 202.159 33.0909 203.021 33.0909C203.854 33.0909 204.578 33.3939 205.194 34C205.819 34.6061 206.136 35.3352 206.146 36.1875C206.136 36.7652 205.985 37.2907 205.691 37.7642C205.407 38.2377 205.028 38.6165 204.555 38.9006C204.091 39.1752 203.579 39.3125 203.021 39.3125ZM220.972 39.4261C218.794 39.4261 216.923 38.9479 215.361 37.9915C213.808 37.035 212.61 35.714 211.767 34.0284C210.934 32.3333 210.517 30.3826 210.517 28.1761C210.517 25.9602 210.943 24.0047 211.795 22.3097C212.648 20.6051 213.85 19.2794 215.403 18.3324C216.966 17.3759 218.813 16.8977 220.943 16.8977C222.714 16.8977 224.281 17.2244 225.645 17.8778C227.018 18.5218 228.112 19.4356 228.926 20.6193C229.741 21.7936 230.205 23.1667 230.318 24.7386H225.403C225.205 23.6875 224.731 22.8116 223.983 22.1108C223.244 21.4006 222.255 21.0455 221.014 21.0455C219.963 21.0455 219.04 21.3295 218.244 21.8977C217.449 22.4564 216.829 23.2614 216.384 24.3125C215.948 25.3636 215.73 26.6231 215.73 28.0909C215.73 29.5777 215.948 30.8561 216.384 31.9261C216.819 32.9867 217.43 33.8059 218.216 34.3835C219.011 34.9517 219.944 35.2358 221.014 35.2358C221.772 35.2358 222.449 35.0937 223.045 34.8097C223.652 34.5161 224.158 34.0947 224.565 33.5455C224.973 32.9962 225.252 32.3286 225.403 31.5426H230.318C230.195 33.0862 229.741 34.4545 228.955 35.6477C228.169 36.8314 227.098 37.7595 225.744 38.4318C224.39 39.0947 222.799 39.4261 220.972 39.4261ZM244.058 39.4261C241.927 39.4261 240.08 38.9574 238.518 38.0199C236.955 37.0824 235.743 35.7708 234.881 34.0852C234.029 32.3996 233.603 30.4299 233.603 28.1761C233.603 25.9223 234.029 23.9479 234.881 22.2528C235.743 20.5578 236.955 19.2415 238.518 18.304C240.08 17.3665 241.927 16.8977 244.058 16.8977C246.188 16.8977 248.035 17.3665 249.597 18.304C251.16 19.2415 252.367 20.5578 253.219 22.2528C254.081 23.9479 254.512 25.9223 254.512 28.1761C254.512 30.4299 254.081 32.3996 253.219 34.0852C252.367 35.7708 251.16 37.0824 249.597 38.0199C248.035 38.9574 246.188 39.4261 244.058 39.4261ZM244.086 35.3068C245.241 35.3068 246.207 34.9896 246.984 34.3551C247.76 33.7112 248.338 32.8494 248.717 31.7699C249.105 30.6903 249.299 29.4877 249.299 28.1619C249.299 26.8267 249.105 25.6193 248.717 24.5398C248.338 23.4508 247.76 22.5843 246.984 21.9403C246.207 21.2964 245.241 20.9744 244.086 20.9744C242.902 20.9744 241.917 21.2964 241.131 21.9403C240.355 22.5843 239.772 23.4508 239.384 24.5398C239.005 25.6193 238.816 26.8267 238.816 28.1619C238.816 29.4877 239.005 30.6903 239.384 31.7699C239.772 32.8494 240.355 33.7112 241.131 34.3551C241.917 34.9896 242.902 35.3068 244.086 35.3068ZM258.876 39V17.1818H263.791V20.8892H264.047C264.501 19.6392 265.254 18.6638 266.305 17.9631C267.357 17.2528 268.611 16.8977 270.07 16.8977C271.547 16.8977 272.792 17.2576 273.805 17.9773C274.828 18.6875 275.548 19.6581 275.964 20.8892H276.192C276.675 19.6771 277.489 18.7112 278.635 17.9915C279.79 17.2623 281.159 16.8977 282.74 16.8977C284.748 16.8977 286.386 17.5322 287.655 18.8011C288.924 20.0701 289.558 21.9214 289.558 24.3551V39H284.402V25.1506C284.402 23.7964 284.042 22.8068 283.322 22.1818C282.603 21.5473 281.722 21.2301 280.68 21.2301C279.44 21.2301 278.469 21.6184 277.768 22.3949C277.077 23.1619 276.732 24.161 276.732 25.392V39H271.689V24.9375C271.689 23.8106 271.348 22.911 270.666 22.2386C269.994 21.5663 269.113 21.2301 268.024 21.2301C267.286 21.2301 266.613 21.4195 266.007 21.7983C265.401 22.1676 264.918 22.6932 264.558 23.375C264.198 24.0473 264.018 24.8333 264.018 25.733V39H258.876Z" fill="white"/>
</svg>
